<svg version="1.1" viewBox="0.0 0.0 1440.0 900.0" fill="none" stroke="none" stroke-linecap="square" stroke-miterlimit="10" xmlns:xlink="http://www.w3.org/1999/xlink" xmlns="http://www.w3.org/2000/svg"><clipPath id="p.0"><path d="m0 0l1440.0 0l0 900.0l-1440.0 0l0 -900.0z" clip-rule="nonzero"/></clipPath><g clip-path="url(#p.0)"><path fill="#000000" fill-opacity="0.0" d="m0 0l1440.0 0l0 900.0l-1440.0 0z" fill-rule="evenodd"/><path fill="#cfe2f3" d="m-8.015748 -8.07874l1448.0 0l0 909.7008l-1448.0 0z" fill-rule="evenodd"/><path fill="#000000" fill-opacity="0.0" d="m1187.6746 901.6168c0 -228.2284 -220.96063 -342.34253 -441.92126 -456.45673c-220.96063 -114.11417 -441.92126 -228.22833 -441.92126 -456.4567" fill-rule="evenodd"/><path stroke="#1155cc" stroke-width="24.0" stroke-linejoin="round" stroke-linecap="butt" d="m1187.6746 901.6168c0 -228.2284 -220.96063 -342.34253 -441.92126 -456.45673c-220.96063 -114.11417 -441.92126 -228.22833 -441.92126 -456.4567" fill-rule="evenodd"/><path fill="#1155cc" d="m536.44617 409.83728l0 0c0 -108.42178 87.89325 -196.31497 196.315 -196.31497l0 0c52.06598 0 101.99945 20.68312 138.81561 57.49933c36.816223 36.816193 57.49933 86.749664 57.49933 138.81564l0 0c0 108.42175 -87.89319 196.31494 -196.31494 196.31494l0 0c-108.42175 0 -196.315 -87.89319 -196.315 -196.31494z" fill-rule="evenodd"/></g></svg>